<svg width="18" height="19" viewBox="0 0 18 19" fill="none" xmlns="http://www.w3.org/2000/svg">
<path d="M10.09 1.65761C10.09 1.18228 9.70463 0.796936 9.22928 0.796936C8.75393 0.796936 8.36861 1.18228 8.36861 1.65761V8.54299H1.48323C1.0079 8.54299 0.622559 8.92831 0.622559 9.40366C0.622559 9.87901 1.0079 10.2643 1.48323 10.2643H8.36861V17.1497C8.36861 17.6251 8.75393 18.0104 9.22928 18.0104C9.70463 18.0104 10.09 17.6251 10.09 17.1497V10.2643H16.9753C17.4507 10.2643 17.836 9.87901 17.836 9.40366C17.836 8.92831 17.4507 8.54299 16.9753 8.54299H10.09V1.65761Z" fill="white"/>
</svg>
