<svg width="31" height="31" viewBox="0 0 31 31" fill="none" xmlns="http://www.w3.org/2000/svg">
<path opacity="0.5" d="M12.2221 0.111084C10.6381 0.111084 9.354 1.39515 9.354 2.97914C9.354 4.56313 10.6381 5.84719 12.2221 5.84719H18.7776C20.3616 5.84719 21.6457 4.56313 21.6457 2.97914C21.6457 1.39515 20.3616 0.111084 18.7776 0.111084H12.2221Z" fill="#5D4FBE"/>
<path opacity="0.5" d="M2.16464 23.3918C0.758559 17.7675 0.0555251 14.9553 1.53189 13.0645C3.00825 11.1736 5.90696 11.1736 11.7044 11.1736H19.2935C25.0909 11.1736 27.9896 11.1736 29.4661 13.0645C30.9424 14.9553 30.2394 17.7675 28.8333 23.3918C27.939 26.969 27.4919 28.7575 26.1582 29.7989C24.8245 30.8402 22.9809 30.8403 19.2935 30.8403H11.7044C8.01712 30.8403 6.1735 30.8402 4.83979 29.7989C3.50609 28.7575 3.05894 26.969 2.16464 23.3918Z" fill="#5D4FBE"/>
<path d="M21.3679 4.21205C21.5461 3.83854 21.6457 3.42048 21.6457 2.97911C21.6457 2.53981 21.5469 2.12356 21.3704 1.7514C22.4906 1.75953 23.3638 1.81096 24.1431 2.11556C25.0743 2.47951 25.8842 3.09819 26.4803 3.90086C27.0817 4.7106 27.364 5.74849 27.7525 7.17703L27.8286 7.45624L28.6688 12.3122C27.999 11.8502 27.1353 11.5756 26.0183 11.4125L25.4261 7.99044C24.961 6.28647 24.7922 5.751 24.5067 5.36655C24.1858 4.93434 23.7496 4.6012 23.2482 4.40524C22.888 4.26444 22.4527 4.22301 21.3679 4.21205Z" fill="#5D4FBE"/>
<path d="M9.62927 1.7514C9.45273 2.12356 9.35396 2.53981 9.35396 2.97911C9.35396 3.42048 9.45365 3.83856 9.63176 4.21206C8.54706 4.22303 8.11181 4.26444 7.75157 4.40524C7.25016 4.6012 6.81402 4.93434 6.49305 5.36655C6.20754 5.751 6.03873 6.28647 5.57365 7.99044L4.98151 11.4123C3.86455 11.5754 3.00085 11.8498 2.33105 12.3115L3.17121 7.45625L3.24724 7.17704C3.63579 5.74851 3.91809 4.7106 4.51945 3.90086C5.11553 3.09819 5.9255 2.47951 6.85668 2.11556C7.63602 1.81098 8.50909 1.75955 9.62927 1.7514Z" fill="#5D4FBE"/>
<path d="M10.1734 17.7292C10.1734 17.0503 9.6231 16.5 8.94425 16.5C8.26541 16.5 7.71509 17.0503 7.71509 17.7292V24.2847C7.71509 24.9635 8.26541 25.5139 8.94425 25.5139C9.6231 25.5139 10.1734 24.9635 10.1734 24.2847V17.7292Z" fill="#5D4FBE"/>
<path d="M22.0553 16.5C22.7342 16.5 23.2845 17.0503 23.2845 17.7292V24.2847C23.2845 24.9635 22.7342 25.5139 22.0553 25.5139C21.3765 25.5139 20.8262 24.9635 20.8262 24.2847V17.7292C20.8262 17.0503 21.3765 16.5 22.0553 16.5Z" fill="#5D4FBE"/>
<path d="M16.7291 17.7292C16.7291 17.0503 16.1787 16.5 15.4999 16.5C14.8211 16.5 14.2708 17.0503 14.2708 17.7292V24.2847C14.2708 24.9635 14.8211 25.5139 15.4999 25.5139C16.1787 25.5139 16.7291 24.9635 16.7291 24.2847V17.7292Z" fill="#5D4FBE"/>
</svg>
