<svg width="9" height="10" viewBox="0 0 9 10" fill="none" xmlns="http://www.w3.org/2000/svg">
<path d="M6.00412 5.00011L8.59692 2.31679C8.92383 1.97845 8.92383 1.41845 8.59692 1.08012C8.27 0.741787 7.7289 0.741787 7.40198 1.08012L4.80919 3.76344L2.21636 1.08012C1.88944 0.741787 1.34834 0.741787 1.02143 1.08012C0.694516 1.41845 0.694516 1.97845 1.02143 2.31679L3.61425 5.00011L1.02143 7.68344C0.694516 8.02178 0.694516 8.58178 1.02143 8.92011C1.19053 9.09511 1.4047 9.17677 1.61889 9.17677C1.83308 9.17677 2.04727 9.09511 2.21636 8.92011L4.80919 6.23677L7.40198 8.92011C7.57107 9.09511 7.78526 9.17677 7.99945 9.17677C8.21363 9.17677 8.42782 9.09511 8.59692 8.92011C8.92383 8.58178 8.92383 8.02178 8.59692 7.68344L6.00412 5.00011Z" fill="#5D4FBE"/>
</svg>
