<svg width="22" height="20" viewBox="0 0 22 20" fill="none" xmlns="http://www.w3.org/2000/svg">
<path fill-rule="evenodd" clip-rule="evenodd" d="M3.41675 0.25H18.5834L7.55034 11.2831C7.37734 10.833 7.09999 10.4465 6.70738 10.1057C6.46056 9.89145 6.11583 9.69732 5.42637 9.30927L2.2706 7.53276C1.24301 6.9543 0.729215 6.66507 0.447981 6.19904C0.166748 5.73301 0.166748 5.17085 0.166748 4.04652V3.29921C0.166748 1.8618 0.166748 1.1431 0.6427 0.69655C1.11865 0.25 1.88469 0.25 3.41675 0.25Z" fill="#5D4FBE"/>
<path opacity="0.5" d="M21.8331 4.04652V3.29921C21.8331 1.8618 21.8331 1.1431 21.3572 0.69655C20.8812 0.25 20.1152 0.25 18.5831 0.25L7.55005 11.2831C7.60354 11.4223 7.64706 11.5676 7.68094 11.7195C7.74979 12.0282 7.74979 12.3896 7.74979 13.1123V16.0043C7.74979 16.9897 7.74979 17.4823 8.02271 17.8664C8.29563 18.2504 8.78035 18.4399 9.74983 18.819C11.785 19.6146 12.8026 20.0124 13.5262 19.5598C14.2498 19.1071 14.2498 18.0729 14.2498 16.0043V13.1123C14.2498 12.3896 14.2498 12.0282 14.3187 11.7195C14.462 11.0763 14.7784 10.552 15.2925 10.1057C15.5393 9.89145 15.884 9.69732 16.5735 9.30927L19.7293 7.53276C20.7568 6.9543 21.2706 6.66507 21.5519 6.19904C21.8331 5.73301 21.8331 5.17085 21.8331 4.04652Z" fill="#5D4FBE"/>
</svg>
