<svg width="12" height="12" viewBox="0 0 12 12" fill="none" xmlns="http://www.w3.org/2000/svg">
<path d="M6.65307 5.15558L6.58906 1.42481C6.58099 0.954402 6.18501 0.558422 5.7146 0.550349C5.2442 0.542277 4.86158 0.924895 4.86966 1.3953L4.93367 5.12607L1.20287 5.06208C0.732467 5.05401 0.349849 5.43663 0.357929 5.90702C0.366002 6.37743 0.761982 6.77341 1.23239 6.78148L4.96318 6.84548L5.02718 10.5763C5.03526 11.0467 5.43123 11.4427 5.90164 11.4507C6.14495 11.4549 6.35414 11.3612 6.50559 11.2098C6.65705 11.0583 6.75075 10.8491 6.74658 10.6058L6.68258 6.87498L10.4134 6.93901C10.6567 6.94318 10.8659 6.84948 11.0173 6.69802C11.1688 6.54657 11.2625 6.33737 11.2583 6.09406C11.2502 5.62366 10.8543 5.22768 10.3839 5.2196L6.65307 5.15558Z" fill="#5D4FBE"/>
</svg>
