<svg width="12" height="13" viewBox="0 0 12 13" fill="none" xmlns="http://www.w3.org/2000/svg">
<path d="M11.5713 10.5654C11.4948 11.1838 11.4614 11.4519 11.1758 12.0547L6.79102 12.96C6.8918 12.3086 7.02582 11.8063 7.24414 11.5049L11.5713 10.5654ZM5.46289 6.2998L6.77344 6.01562V1.87598C7.26166 1.32793 7.56209 1.08157 8.15137 0.770508V5.7168L11.5713 4.97461C11.4948 5.593 11.4613 5.86114 11.1758 6.46387L8.15137 7.10254V8.49414L11.5713 7.77051C11.4948 8.38875 11.4614 8.657 11.1758 9.25977L8.15137 9.88379V9.89648L6.77344 10.1816V7.39453L5.46289 7.6709V9.42773L5.44043 9.43164C5.13903 9.96019 4.7139 10.5956 4.30371 11.1025L0 11.9219C0.0385877 11.3684 0.118905 11.0565 0.369141 10.499L4.08594 9.69238V7.96289L0.641602 8.69141C0.680193 8.13762 0.760317 7.8254 1.01074 7.26758L4.08594 6.59863V1.10547C4.57409 0.55751 4.87374 0.311012 5.46289 0V6.2998Z" fill="#1D1D1D"/>
</svg>
